<mxfile host="app.diagrams.net" modified="2024-05-15T00:09:57.733Z" agent="Mozilla/5.0 (Windows NT 10.0; Win64; x64) AppleWebKit/537.36 (KHTML, like Gecko) Chrome/123.0.0.0 Safari/537.36 OPR/109.0.0.0" version="24.4.0" etag="K_N7xKJIJ1Dxujc_UQtG" type="github">
  <diagram name="PÃ¡gina-1" id="iGSC-iruZvA_h8ZzWYsT">
    <mxGraphModel>
      <root>
        <mxCell id="0" />
        <mxCell id="1" parent="0" />
      </root>
    </mxGraphModel>
  </diagram>
</mxfile>
